<svg width="50.000000" height="50.000000" viewBox="0 0 50 50" fill="none" xmlns="http://www.w3.org/2000/svg" xmlns:xlink="http://www.w3.org/1999/xlink">
	<desc>
			Created with Pixso.
	</desc>
	<defs/>
	<path id="Vector" d="M49.1665 0L11.6665 0C11.2063 0 10.8333 0.373047 10.8333 0.833496L10.8333 13.3335L12.5 13.3335L12.5 1.6665L48.3333 1.6665L48.3333 47.5C48.3411 47.938 48.0029 48.3052 47.5657 48.333C47.4939 48.333 47.4224 48.3276 47.3506 48.3257C47.2031 48.3218 47.0557 48.3184 46.9106 48.3032C46.8982 48.3032 46.8865 48.3032 46.874 48.2983C44.1523 48.001 42.0024 45.853 41.7024 43.1313C41.7024 43.1201 41.6982 43.1074 41.6965 43.0957C41.6763 42.8979 41.6663 42.6987 41.6665 42.5L41.6665 40.833C41.6665 40.373 41.2935 40 40.8333 40L12.5 40L12.5 25L10.8333 25L10.8333 40L4.1665 40C3.7063 40 3.33325 40.373 3.33325 40.833L3.33325 42.5C3.33789 46.6401 6.69312 49.9951 10.8333 50L47.5833 50C48.9355 49.9644 50.0103 48.8525 49.9998 47.5L49.9998 0.833496C49.9998 0.373047 49.6267 0 49.1665 0ZM10.8333 48.333C7.61304 48.3296 5.00366 45.7202 5 42.5L5 41.6665L39.9998 41.6665L39.9998 42.5C40.001 42.7749 40.0168 43.0493 40.0474 43.3223C40.0549 43.395 40.0691 43.4648 40.0791 43.5366C40.1064 43.7383 40.1399 43.939 40.1841 44.1367C40.199 44.2056 40.2183 44.2739 40.2356 44.3433C40.2866 44.5439 40.344 44.7417 40.4106 44.9365C40.4299 44.9922 40.45 45.0474 40.4707 45.103C40.5464 45.3101 40.6323 45.5117 40.7266 45.7109C40.7466 45.7515 40.7649 45.7939 40.7849 45.8315C40.8894 46.0425 41.0039 46.248 41.1289 46.4473C41.1458 46.4741 41.1606 46.5015 41.1772 46.5308C41.3132 46.7437 41.4597 46.9492 41.6165 47.1475L41.6431 47.1831C41.825 47.4116 42.0198 47.6294 42.2266 47.8359C42.406 48.0137 42.592 48.1802 42.7849 48.3359L10.8333 48.333Z" fill="#FFFFFF" fill-opacity="1.000000" fill-rule="nonzero"/>
	<path id="Vector" d="M27.5 23.3335C27.7209 23.3335 27.9329 23.2456 28.0891 23.0894L31.4224 19.7559C31.7478 19.4302 31.7478 18.9028 31.4224 18.5776L28.0891 15.2441C27.9329 15.0879 27.7209 15 27.5 15L4.16675 15C1.86548 15 0 16.8657 0 19.1665C0 21.4678 1.86548 23.3335 4.16675 23.3335L27.5 23.3335ZM27.2849 16.7969L29.655 19.1665L27.2849 21.5366L26.6924 19.1665L27.2849 16.7969ZM6.66675 16.6665L25.5999 16.6665L25.1833 18.3335L8.33325 18.3335L8.33325 20L25.1833 20L25.5999 21.6665L6.66675 21.6665L6.66675 16.6665ZM1.66675 19.1665C1.66675 17.7861 2.78589 16.6665 4.16675 16.6665L5 16.6665L5 21.6665L4.16675 21.6665C2.78589 21.6665 1.66675 20.5474 1.66675 19.1665Z" fill="#FFFFFF" fill-opacity="1.000000" fill-rule="nonzero"/>
	<path id="Vector" d="M19.1667 35.8335L44.1665 35.8335C44.6267 35.8335 45 35.4604 45 35L45 10C44.9998 9.54004 44.6267 9.16699 44.1665 9.16699C43.9456 9.16699 43.7336 9.25488 43.5774 9.41113L18.5774 34.4111C18.2522 34.7363 18.2522 35.2642 18.5776 35.5894C18.7339 35.7456 18.9458 35.8335 19.1667 35.8335ZM43.3333 12.0117L43.3333 14.167L41.6665 14.167L41.6665 15.8335L43.3333 15.8335L43.3333 17.5L41.6665 17.5L41.6665 19.167L43.3333 19.167L43.3333 20.8335L41.6665 20.8335L41.6665 22.5L43.3333 22.5L43.3333 24.167L41.6665 24.167L41.6665 25.8335L43.3333 25.8335L43.3333 27.5L41.6665 27.5L41.6665 29.1665L43.3333 29.1665L43.3333 30.8335L41.6665 30.8335L41.6665 32.5L43.3333 32.5L43.3333 34.1665L41.6665 34.1665L41.6665 32.5L40 32.5L40 34.1665L38.3333 34.1665L38.3333 32.5L36.6665 32.5L36.6665 34.1665L35 34.1665L35 32.5L33.3333 32.5L33.3333 34.1665L31.6667 34.1665L31.6667 32.5L30 32.5L30 34.1665L28.3333 34.1665L28.3333 32.5L26.6667 32.5L26.6667 34.1665L25 34.1665L25 32.5L23.3333 32.5L23.3333 34.1665L21.1782 34.1665L43.3333 12.0117Z" fill="#FFFFFF" fill-opacity="1.000000" fill-rule="nonzero"/>
	<path id="Vector" d="M31.2375 30.8335L39.1667 30.8335C39.627 30.8335 40 30.4604 40 30L40 22.0708C39.9998 21.6108 39.6267 21.2378 39.1665 21.2378C38.9456 21.2378 38.7336 21.3257 38.5774 21.4819L30.6482 29.4111C30.323 29.7363 30.323 30.2642 30.6484 30.5894C30.8047 30.7456 31.0166 30.8335 31.2375 30.8335ZM38.3333 24.0835L38.3333 29.1665L33.25 29.1665L38.3333 24.0835Z" fill="#FFFFFF" fill-opacity="1.000000" fill-rule="nonzero"/>
	<path id="Vector" d="M21.6665 5L38.3333 5L38.3333 6.6665L21.6665 6.6665L21.6665 5Z" fill="#FFFFFF" fill-opacity="1.000000" fill-rule="evenodd"/>
	<path id="Vector" d="M19.1665 8.33301L40.833 8.33301L40.833 9.99951L19.1665 9.99951L19.1665 8.33301Z" fill="#FFFFFF" fill-opacity="1.000000" fill-rule="evenodd"/>
	<path id="Vector" d="M14.1665 25.833L19.1665 25.833L19.1665 27.4995L14.1665 27.4995L14.1665 25.833Z" fill="#FFFFFF" fill-opacity="1.000000" fill-rule="evenodd"/>
	<path id="Vector" d="M14.1665 29.1665L17.4998 29.1665L17.4998 30.833L14.1665 30.833L14.1665 29.1665Z" fill="#FFFFFF" fill-opacity="1.000000" fill-rule="evenodd"/>
</svg>
