<svg width="43.750000" height="22.822266" viewBox="0 0 43.75 22.8223" fill="none" xmlns="http://www.w3.org/2000/svg" xmlns:xlink="http://www.w3.org/1999/xlink">
	<desc>
			Created with Pixso.
	</desc>
	<defs/>
	<path id="Vector" d="M43.5181 20.6104C43.4653 20.5059 43.4155 20.4199 43.3696 20.3506C42.6108 19.1006 41.1602 17.5664 39.019 15.7471L38.9736 15.7061L38.9512 15.6855L38.9282 15.6641L38.9053 15.6641C37.9336 14.8174 37.3181 14.248 37.0605 13.9561C36.5889 13.4004 36.4834 12.8389 36.741 12.2686C36.9231 11.8389 37.6069 10.9297 38.791 9.54102C39.4141 8.80469 39.9072 8.21582 40.2715 7.77051C42.8989 4.57715 44.0381 2.53711 43.6885 1.64844L43.5527 1.44043C43.4619 1.31543 43.2261 1.20117 42.8472 1.09668C42.4668 0.992188 41.981 0.975586 41.3887 1.04492L34.8286 1.08594C34.7224 1.05176 34.5706 1.05469 34.373 1.09668C34.1755 1.13867 34.0767 1.15918 34.0767 1.15918L33.9626 1.21191L33.8718 1.27441C33.7959 1.31543 33.7124 1.38867 33.6213 1.49219C33.5305 1.59668 33.4546 1.71777 33.394 1.85742C32.6797 3.53711 31.8677 5.09863 30.9563 6.54297C30.3945 7.4043 29.8784 8.15039 29.4072 8.78223C28.9365 9.41309 28.5417 9.87891 28.2229 10.1768C27.9038 10.4756 27.6157 10.7148 27.3572 10.8955C27.0989 11.0762 26.9019 11.1523 26.7654 11.125C26.6284 11.0967 26.4995 11.0693 26.3777 11.041C26.165 10.916 25.9941 10.7461 25.8655 10.5312C25.7361 10.3154 25.6489 10.0449 25.6033 9.71875C25.5579 9.3916 25.5312 9.11133 25.5234 8.875C25.5164 8.63965 25.5198 8.30566 25.5352 7.875C25.5508 7.44434 25.5579 7.15332 25.5579 7.00098C25.5579 6.47266 25.5693 5.90039 25.5918 5.28223C25.6147 4.66504 25.6333 4.1748 25.6489 3.81445C25.6643 3.45312 25.6716 3.07129 25.6716 2.66895C25.6716 2.2666 25.6448 1.9502 25.5918 1.7207C25.5396 1.49219 25.4592 1.27051 25.3533 1.05469C25.2468 0.839844 25.0908 0.672852 24.8862 0.554688C24.6814 0.436523 24.4265 0.342773 24.1233 0.273438C23.3184 0.107422 22.2932 0.0166016 21.0479 0.00292969C18.2234 -0.0244141 16.4084 0.141602 15.6038 0.50293C15.2849 0.655273 14.9961 0.864258 14.7383 1.12793C14.4648 1.43359 14.4268 1.59961 14.624 1.62695C15.5354 1.75195 16.1804 2.05078 16.5601 2.52246L16.697 2.77246C16.8035 2.95312 16.9097 3.27246 17.0161 3.73047C17.1223 4.18945 17.1907 4.69531 17.2209 5.25098C17.2966 6.26465 17.2966 7.13184 17.2209 7.85449C17.1448 8.57617 17.073 9.13867 17.0046 9.54102C16.936 9.94336 16.8335 10.2705 16.697 10.5195C16.5601 10.7695 16.469 10.9229 16.4236 10.9785C16.3779 11.0332 16.3398 11.0684 16.3098 11.082C16.1123 11.1514 15.907 11.1865 15.6946 11.1865C15.4819 11.1865 15.2239 11.0889 14.9202 10.8945C14.6167 10.7002 14.3015 10.4336 13.9751 10.0928C13.6484 9.75293 13.28 9.27734 12.8699 8.66602C12.4602 8.05566 12.0349 7.33398 11.5945 6.5L11.2302 5.89648C11.0024 5.50781 10.6912 4.94141 10.2964 4.19922C9.90112 3.45605 9.552 2.7373 9.24854 2.04297C9.1272 1.75195 8.94482 1.5293 8.7019 1.37695L8.58789 1.31445C8.51196 1.25879 8.39038 1.2002 8.22339 1.1377C8.0564 1.07422 7.88184 1.0293 7.69946 1.00195L1.45801 1.04395C0.820312 1.04395 0.387695 1.17578 0.159668 1.43945L0.0686035 1.56445C0.0229492 1.63379 0 1.74512 0 1.89746C0 2.05078 0.0456543 2.23828 0.136719 2.45996C1.04785 4.41797 2.03882 6.30566 3.10913 8.125C4.17969 9.94336 5.11011 11.4082 5.89941 12.5186C6.68921 13.6299 7.4939 14.6777 8.31421 15.6631C9.13428 16.6494 9.677 17.2812 9.94263 17.5586C10.2085 17.8369 10.4175 18.0449 10.5693 18.1836L11.1389 18.6836C11.5032 19.0166 12.0386 19.416 12.7446 19.8809C13.4509 20.3457 14.2329 20.8037 15.0908 21.2559C15.949 21.7061 16.9475 22.0742 18.0864 22.3594C19.2253 22.6436 20.334 22.7578 21.4121 22.7031L24.0317 22.7031C24.563 22.6611 24.9656 22.5088 25.2393 22.2451L25.3298 22.1406C25.3906 22.0576 25.4478 21.9287 25.5005 21.7559C25.5537 21.582 25.5803 21.3906 25.5803 21.1826C25.5647 20.5859 25.6143 20.0479 25.728 19.5693C25.8416 19.0898 25.9709 18.7295 26.1157 18.4863C26.2603 18.2432 26.4236 18.0381 26.6052 17.8721C26.7874 17.7051 26.917 17.6045 26.9932 17.5693C27.0688 17.5352 27.1292 17.5107 27.1748 17.4971C27.5391 17.3857 27.968 17.4932 28.4622 17.8203C28.9558 18.1465 29.4187 18.5488 29.8518 19.0283C30.2847 19.5068 30.8047 20.0449 31.4119 20.6416C32.0195 21.2393 32.551 21.6826 33.0063 21.9746L33.4619 22.2246C33.7659 22.3916 34.1609 22.5439 34.647 22.6826C35.1321 22.8223 35.5571 22.8564 35.9221 22.7871L41.7534 22.7041C42.3301 22.7041 42.7788 22.6162 43.0972 22.4434C43.416 22.2695 43.6055 22.0791 43.6665 21.8711C43.7275 21.6621 43.731 21.4268 43.6782 21.1621C43.624 20.8984 43.5713 20.7148 43.5181 20.6104Z" fill="#FFFFFF" fill-opacity="1.000000" fill-rule="nonzero"/>
</svg>
